<svg xmlns="http://www.w3.org/2000/svg" xmlns:xlink="http://www.w3.org/1999/xlink" viewBox="0 0 375 812">
  <defs>
    <style>
      .cls-1 {
        clip-path: url(#clip-iPhone_X_1);
      }

      .cls-2, .cls-6 {
        fill: #fff;
      }

      .cls-2, .cls-3 {
        stroke: #707070;
      }

      .cls-3, .cls-5 {
        fill: none;
      }

      .cls-4 {
        stroke: none;
      }
    </style>
    <clipPath id="clip-iPhone_X_1">
      <rect width="375" height="812"/>
    </clipPath>
  </defs>
  <g id="iPhone_X_1" data-name="iPhone X – 1" class="cls-1">
    <rect class="cls-6" width="375" height="812"/>
    <g id="Ellipse_1" data-name="Ellipse 1" class="cls-2" transform="translate(144 20)">
      <ellipse class="cls-4" cx="43.5" cy="45" rx="43.5" ry="45"/>
      <ellipse class="cls-5" cx="43.5" cy="45" rx="43" ry="44.5"/>
    </g>
    <line id="Line_1" data-name="Line 1" class="cls-3" x2="382" transform="translate(-2.5 740.5)"/>
    <g id="Rectangle_1" data-name="Rectangle 1" class="cls-2" transform="translate(35 53)">
      <rect class="cls-4" width="25" height="25"/>
      <rect class="cls-5" x="0.5" y="0.5" width="24" height="24"/>
    </g>
    <line id="Line_2" data-name="Line 2" class="cls-3" x1="12" y2="15" transform="translate(35.5 38.5)"/>
    <line id="Line_3" data-name="Line 3" class="cls-3" x2="12" y2="15" transform="translate(48.5 38.5)"/>
    <g id="Ellipse_2" data-name="Ellipse 2" class="cls-2" transform="translate(315 39)">
      <circle class="cls-4" cx="17.5" cy="17.5" r="17.5"/>
      <circle class="cls-5" cx="17.5" cy="17.5" r="17"/>
    </g>
    <line id="Line_4" data-name="Line 4" class="cls-3" x1="10" y2="14" transform="translate(310.5 68.5)"/>
    <line id="Line_5" data-name="Line 5" class="cls-3" y2="6" transform="translate(300.5 39.5)"/>
    <line id="Line_6" data-name="Line 6" class="cls-3" x2="5" transform="translate(295.5 39.5)"/>
    <line id="Line_7" data-name="Line 7" class="cls-3" x1="6" transform="translate(263.547 39.5)"/>
    <line id="Line_8" data-name="Line 8" class="cls-3" y1="4" transform="translate(263.547 39.5)"/>
    <line id="Line_9" data-name="Line 9" class="cls-3" y1="2" transform="translate(263.547 42.625)"/>
    <line id="Line_10" data-name="Line 10" class="cls-3" x1="11" transform="translate(277.703 49.083)"/>
    <line id="Line_11" data-name="Line 11" class="cls-3" x1="11" transform="translate(277.703 56.75)"/>
    <line id="Line_12" data-name="Line 12" class="cls-3" x1="11" transform="translate(277.703 64.417)"/>
    <line id="Line_13" data-name="Line 13" class="cls-3" y2="5" transform="translate(300.5 68)"/>
    <line id="Line_14" data-name="Line 14" class="cls-3" y1="1" transform="translate(300.5 73)"/>
    <line id="Line_15" data-name="Line 15" class="cls-3" x2="5" transform="translate(295.5 74)"/>
    <line id="Line_16" data-name="Line 16" class="cls-3" x1="6" transform="translate(263.547 74)"/>
    <line id="Line_17" data-name="Line 17" class="cls-3" y2="6" transform="translate(263.547 68)"/>
    <line id="Line_18" data-name="Line 18" class="cls-3" x2="387" transform="translate(-3.5 128.5)"/>
    <line id="Line_19" data-name="Line 19" class="cls-3" x2="427" transform="translate(-4.5 384.5)"/>
    <line id="Line_20" data-name="Line 20" class="cls-3" x2="479" transform="translate(-5.5 499.5)"/>
    <g id="Rectangle_2" data-name="Rectangle 2" class="cls-2" transform="translate(21 517)">
      <rect class="cls-4" width="115" height="75"/>
      <rect class="cls-5" x="0.5" y="0.5" width="114" height="74"/>
    </g>
    <g id="Rectangle_3" data-name="Rectangle 3" class="cls-2" transform="translate(201 554)">
      <rect class="cls-4" width="115" height="75"/>
      <rect class="cls-5" x="0.5" y="0.5" width="114" height="74"/>
    </g>
    <g id="Rectangle_4" data-name="Rectangle 4" class="cls-2" transform="translate(46 635)">
      <rect class="cls-4" width="115" height="75"/>
      <rect class="cls-5" x="0.5" y="0.5" width="114" height="74"/>
    </g>
    <line id="Line_21" data-name="Line 21" class="cls-3" x2="114" y2="74" transform="translate(21.5 517.5)"/>
    <line id="Line_22" data-name="Line 22" class="cls-3" x1="114" y2="74" transform="translate(21.5 517.5)"/>
    <line id="Line_23" data-name="Line 23" class="cls-3" x2="114" y2="74" transform="translate(201.5 554.5)"/>
    <line id="Line_24" data-name="Line 24" class="cls-3" y1="74" x2="114" transform="translate(201.5 554.5)"/>
    <line id="Line_25" data-name="Line 25" class="cls-3" x2="114" y2="74" transform="translate(46.5 635.5)"/>
    <line id="Line_26" data-name="Line 26" class="cls-3" y1="74" x2="114" transform="translate(46.5 635.5)"/>
    <line id="Line_27" data-name="Line 27" class="cls-3" x2="375" y2="256" transform="translate(0.5 128.5)"/>
    <line id="Line_28" data-name="Line 28" class="cls-3" x1="375" y2="256" transform="translate(0.5 128.5)"/>
    <line id="Line_29" data-name="Line 29" class="cls-3" y2="72" transform="translate(187.5 740.5)"/>
    <line id="Line_30" data-name="Line 30" class="cls-3" y2="72" transform="translate(92.5 740.5)"/>
    <line id="Line_31" data-name="Line 31" class="cls-3" y2="72" transform="translate(283.5 740.5)"/>
    <g id="Rectangle_5" data-name="Rectangle 5" class="cls-2" transform="translate(143 561)">
      <rect class="cls-4" width="35" height="15"/>
      <rect class="cls-5" x="0.5" y="0.5" width="34" height="14"/>
    </g>
    <line id="Line_32" data-name="Line 32" class="cls-3" x2="35" transform="translate(143.5 544.5)"/>
    <line id="Line_33" data-name="Line 33" class="cls-3" x2="35" transform="translate(143.5 548.5)"/>
    <line id="Line_34" data-name="Line 34" class="cls-3" x2="35" transform="translate(143.5 540.5)"/>
    <line id="Line_35" data-name="Line 35" class="cls-3" x2="35" transform="translate(143.5 552.5)"/>
    <g id="Rectangle_7" data-name="Rectangle 7" class="cls-2" transform="translate(143 561)">
      <rect class="cls-4" width="35" height="15"/>
      <rect class="cls-5" x="0.5" y="0.5" width="34" height="14"/>
    </g>
    <line id="Line_36" data-name="Line 36" class="cls-3" x2="35" transform="translate(143.5 544.5)"/>
    <line id="Line_37" data-name="Line 37" class="cls-3" x2="35" transform="translate(143.5 548.5)"/>
    <line id="Line_38" data-name="Line 38" class="cls-3" x2="35" transform="translate(143.5 540.5)"/>
    <line id="Line_39" data-name="Line 39" class="cls-3" x2="35" transform="translate(143.5 552.5)"/>
    <g id="Rectangle_8" data-name="Rectangle 8" class="cls-2" transform="translate(323 599)">
      <rect class="cls-4" width="35" height="15"/>
      <rect class="cls-5" x="0.5" y="0.5" width="34" height="14"/>
    </g>
    <line id="Line_40" data-name="Line 40" class="cls-3" x2="35" transform="translate(323.5 582.5)"/>
    <line id="Line_41" data-name="Line 41" class="cls-3" x2="35" transform="translate(323.5 586.5)"/>
    <line id="Line_42" data-name="Line 42" class="cls-3" x2="35" transform="translate(323.5 578.5)"/>
    <line id="Line_43" data-name="Line 43" class="cls-3" x2="35" transform="translate(323.5 590.5)"/>
    <g id="Rectangle_9" data-name="Rectangle 9" class="cls-2" transform="translate(323 599)">
      <rect class="cls-4" width="35" height="15"/>
      <rect class="cls-5" x="0.5" y="0.5" width="34" height="14"/>
    </g>
    <line id="Line_44" data-name="Line 44" class="cls-3" x2="35" transform="translate(323.5 582.5)"/>
    <line id="Line_45" data-name="Line 45" class="cls-3" x2="35" transform="translate(323.5 586.5)"/>
    <line id="Line_46" data-name="Line 46" class="cls-3" x2="35" transform="translate(323.5 578.5)"/>
    <line id="Line_47" data-name="Line 47" class="cls-3" x2="35" transform="translate(323.5 590.5)"/>
    <g id="Rectangle_10" data-name="Rectangle 10" class="cls-2" transform="translate(168 682)">
      <rect class="cls-4" width="35" height="15"/>
      <rect class="cls-5" x="0.5" y="0.5" width="34" height="14"/>
    </g>
    <line id="Line_48" data-name="Line 48" class="cls-3" x2="35" transform="translate(168.5 665.5)"/>
    <line id="Line_49" data-name="Line 49" class="cls-3" x2="35" transform="translate(168.5 669.5)"/>
    <line id="Line_50" data-name="Line 50" class="cls-3" x2="35" transform="translate(168.5 661.5)"/>
    <line id="Line_51" data-name="Line 51" class="cls-3" x2="35" transform="translate(168.5 673.5)"/>
    <g id="Rectangle_11" data-name="Rectangle 11" class="cls-2" transform="translate(168 682)">
      <rect class="cls-4" width="35" height="15"/>
      <rect class="cls-5" x="0.5" y="0.5" width="34" height="14"/>
    </g>
    <line id="Line_52" data-name="Line 52" class="cls-3" x2="35" transform="translate(168.5 665.5)"/>
    <line id="Line_53" data-name="Line 53" class="cls-3" x2="35" transform="translate(168.5 669.5)"/>
    <line id="Line_54" data-name="Line 54" class="cls-3" x2="35" transform="translate(168.5 661.5)"/>
    <line id="Line_55" data-name="Line 55" class="cls-3" x2="35" transform="translate(168.5 673.5)"/>
    <line id="Line_56" data-name="Line 56" class="cls-3" x2="331" transform="translate(21.5 406.5)"/>
    <line id="Line_57" data-name="Line 57" class="cls-3" x2="331" transform="translate(21.5 421.5)"/>
    <line id="Line_58" data-name="Line 58" class="cls-3" x2="331" transform="translate(21.5 436.5)"/>
    <line id="Line_59" data-name="Line 59" class="cls-3" x2="331" transform="translate(21.5 451.5)"/>
    <line id="Line_60" data-name="Line 60" class="cls-3" x2="331" transform="translate(21.5 466.5)"/>
    <line id="Line_61" data-name="Line 61" class="cls-3" x2="331" transform="translate(22.5 481.5)"/>
    <line id="Line_62" data-name="Line 62" class="cls-3" x2="66" y2="57" transform="translate(152.5 39.5)"/>
    <line id="Line_63" data-name="Line 63" class="cls-3" x1="65" y2="57" transform="translate(155.5 37.5)"/>
  </g>
</svg>
