<svg id="Layer_1" data-name="Layer 1" xmlns="http://www.w3.org/2000/svg" viewBox="0 0 474.69 167.4"><defs><style>.cls-1{fill:#fff;}</style></defs><title>fff</title><path class="cls-1" d="M116.85,85.27q-.19-1.41-.45-2.85a17.59,17.59,0,0,0-.75-2.85,5.25,5.25,0,0,0-1.85-3.45,7.36,7.36,0,0,0-3-1.25,9.35,9.35,0,0,0-3.3-.6,7.88,7.88,0,0,0-1.8.2c-.6.13-1.23.3-1.9.5a20.33,20.33,0,0,0-3.45,2,18.65,18.65,0,0,0-3,2.65,39.16,39.16,0,0,0-6.85,7.75,59.64,59.64,0,0,0-5.05,9.25q-1.5,3.6-2.95,8.05t-2.65,9q-1.2,4.59-2,9.2a83,83,0,0,0-1.15,8.5,34.06,34.06,0,0,0,0,4.15c.1,1.43.22,2.81.35,4.15a7.93,7.93,0,0,0,3.11,4.18c0-.09,0-.18,0-.27a5.06,5.06,0,0,1,2.3-3l.14-.06a2.37,2.37,0,0,0-.2-.46c-.07-.54-.12-1.07-.15-1.6a8.54,8.54,0,0,1,0-1.6c.07-1.14.12-2.32.15-3.55a13.79,13.79,0,0,1,.55-3.55,141.11,141.11,0,0,1,4.45-17.85,111.8,111.8,0,0,1,6.75-16.45,43.19,43.19,0,0,1,4.6-8.15,45.17,45.17,0,0,1,6.2-6.95,2.88,2.88,0,0,1,.75-.7c.37-.27.75-.54,1.15-.8a9,9,0,0,1,1.25-.7,2.63,2.63,0,0,1,1-.3.77.77,0,0,1,.7.3,6,6,0,0,1,.5,1c.14.4.27.81.4,1.25a8,8,0,0,1,.3,1.45,30.5,30.5,0,0,1,.8,5.9,51.71,51.71,0,0,1-.1,5.6,96.19,96.19,0,0,1-1.75,12.8q-1.35,6.69-3.2,13.5t-4,13.35q-2.2,6.54-4.4,12.25a111.37,111.37,0,0,1-6.8,15.7q-4.1,7.8-8.6,14.8a46.06,46.06,0,0,1-3.6,4.5,42.76,42.76,0,0,1-4.3,4.1,9.58,9.58,0,0,1-2,1c-.73.26-1.53.53-2.4.8a12.62,12.62,0,0,1-3-.3,8.13,8.13,0,0,1-2.7-1.4,10.22,10.22,0,0,1-1.45-1.1c-.43-.4-.92-.84-1.45-1.3a39,39,0,0,1-5.4-7,45.85,45.85,0,0,1-3.8-8.05,58.7,58.7,0,0,1-2.35-8.65c-.57-3-1-5.92-1.25-8.85a96.35,96.35,0,0,1,2.4-32.3,11.21,11.21,0,0,1,1.3-4q1.09-2.7,2.15-5.15t2.15-5a28.49,28.49,0,0,1,4.2-7,33.63,33.63,0,0,1,5.8-5.55c.87-.4,1.67-.79,2.4-1.15a5.47,5.47,0,0,1,2.5-.55,7.2,7.2,0,0,1,2.6.6h.4a1.2,1.2,0,0,1,.55-.1.47.47,0,0,0,.45-.2,4,4,0,0,1-.25-.85.74.74,0,0,0-.35-.55,2.34,2.34,0,0,1-.75-.35,2,2,0,0,0-.85-.35,5.73,5.73,0,0,0-2.4-1.05,14.05,14.05,0,0,0-2.7-.25,16.77,16.77,0,0,0-9.6,2.7,48.84,48.84,0,0,0-7.7,6.5q-1.59,1.89-3.05,3.9a16.2,16.2,0,0,0-2.25,4.3c-.67,1.33-1.28,2.63-1.85,3.9s-1.15,2.6-1.75,4a109.75,109.75,0,0,0-3.3,13,82.51,82.51,0,0,0-.75,11.85q0,6,.85,14.05A98.78,98.78,0,0,0,41.85,160a60.68,60.68,0,0,0,4.9,11.65,45.66,45.66,0,0,0,4.1,6.8,32.13,32.13,0,0,0,5.4,5.8,25.87,25.87,0,0,0,6.6,4,20.08,20.08,0,0,0,7.8,1.5,15.46,15.46,0,0,0,12.4-5.7,23.8,23.8,0,0,0,3.35-3.7c1-1.34,1.92-2.7,2.85-4.1A93.1,93.1,0,0,0,95.1,166q2.85-5.76,5.4-12.1t4.8-13q2.25-6.7,4.15-13.3t3.35-12.75q1.45-6.15,2.45-11.35c.53-2.8,1-5.74,1.35-8.8A51.52,51.52,0,0,0,116.85,85.27Z" transform="translate(-38.5 -74.27)"/><path class="cls-1" d="M116,166.77a56.75,56.75,0,0,1-.5-5.75c-.07-1.9-.1-3.89-.1-6,0-1.74,0-3.57.1-5.5a56.49,56.49,0,0,1,.5-5.8q.49-2.81,1-5.3a29.6,29.6,0,0,1,1.65-5.1c.33-.67.72-1.35,1.15-2.05a2.57,2.57,0,0,1,1.85-1.25,6,6,0,0,1,1.9-.3,8.33,8.33,0,0,1,2.2.3,1.53,1.53,0,0,1,1.1,1.7V134a11,11,0,0,1-.2,2.1q-.41,2.9-.75,5.75c-.23,1.9-.52,3.81-.85,5.75a38.77,38.77,0,0,0-.5,4.65c-.07,1.5-.13,3-.2,4.55a25.92,25.92,0,0,0-.25,2.65c0,.83-.08,1.65-.15,2.45v.5l.4-.5c.47-1.34.92-2.7,1.35-4.1s.88-2.8,1.35-4.2a64.07,64.07,0,0,1,2.35-6.3c1-2.27,2-4.5,3.2-6.7a70.55,70.55,0,0,1,3.8-6.35,34.38,34.38,0,0,1,4.25-5.25,4.1,4.1,0,0,1,2.5-.8,4.88,4.88,0,0,1,2.55.75,4.43,4.43,0,0,1,1.85,2.45c.2.73.35,1.35.45,1.85a9,9,0,0,1,.15,1.75,45.22,45.22,0,0,1-.05,4.8c-.1,1.6-.22,3.16-.35,4.7q-.5,3.5-.95,7t-1,7.1c-.2,1.13-.37,2.31-.5,3.55s-.23,2.41-.3,3.55q-.3,2.6-.45,5.1a36.3,36.3,0,0,0,.05,5v1.5a7.62,7.62,0,0,0,.1,1.3c0,.4.13.53.4.4a10.79,10.79,0,0,0,.9-1,80.75,80.75,0,0,0,4.5-7.65q1.8-3.56,3.2-7.1c.93-2.37,1.82-4.8,2.65-7.3s1.75-5.25,2.75-8.25a13.78,13.78,0,0,1,.45-2.1q.26-.81.45-1.5c.13-.47.28-1,.45-1.55s.35-1.29.55-2.15a1.56,1.56,0,0,1,1.6-1q.79,0,.6.9t-.15,1.65a5.85,5.85,0,0,1-.45,1.85,6.57,6.57,0,0,1-.2,1,3.53,3.53,0,0,0-.15.55,4.38,4.38,0,0,1-.2.65,10.22,10.22,0,0,0-.35,1.2q-1.4,4.89-2.6,9.05t-2.65,8a79.34,79.34,0,0,1-3.4,7.7,78.21,78.21,0,0,1-4.85,8.15,3.32,3.32,0,0,1-.75,1,8.47,8.47,0,0,0-.95,1c-.27.13-.53.25-.8.35a2.26,2.26,0,0,1-.8.15h-1.2a3.48,3.48,0,0,1-2.25-.7,5,5,0,0,1-1.35-1.75,7.46,7.46,0,0,1-.65-2.3,19.91,19.91,0,0,1-.15-2.35v-6.35c0-2,.07-4.15.2-6.35q.3-3.9.9-7.7t1.3-7.5q.41-2.4.75-4.65c.23-1.5.42-3.09.55-4.75a15.46,15.46,0,0,0,.35-2.65c0-.84.08-1.72.15-2.65a5.48,5.48,0,0,0-.1-1.05,3.13,3.13,0,0,0-.4-1c-.13-.34-.23-.5-.3-.5s-.23.13-.5.4a2.69,2.69,0,0,0-.8.65c-.27.3-.53.58-.8.85a40.73,40.73,0,0,0-4.75,7.15,85.82,85.82,0,0,0-3.9,8.45q-1.75,4.39-3.1,8.85t-2.25,8.45c-.27,1-.52,2.08-.75,3.25s-.52,2.31-.85,3.45a14.32,14.32,0,0,1-.55,1.7,2,2,0,0,1-.7.9,3.33,3.33,0,0,1-1,.45,6.82,6.82,0,0,1-1.6.15,3.18,3.18,0,0,1-2.1-.75,6.35,6.35,0,0,1-1.5-1.85,26.31,26.31,0,0,1-1-2.75A18,18,0,0,1,116,166.77Z" transform="translate(-38.5 -74.27)"/><path class="cls-1" d="M177.55,122.57a7.72,7.72,0,0,1,3.1,1.75,5.74,5.74,0,0,1,1.6,2.45,8,8,0,0,1,.6,2.25c.07.7.16,1.41.3,2.15a8,8,0,0,1,.1,1.2,4.66,4.66,0,0,0,.2,1.2c-.07.66-.13,1.31-.2,2A6.12,6.12,0,0,1,183,137a4.77,4.77,0,0,1-.5,1.4,9.6,9.6,0,0,1-.8,1.1,2,2,0,0,1-1.9.9c-1,0-1.5-.47-1.5-1.4a4,4,0,0,1-.2-1.4,8.15,8.15,0,0,0-.1-1.4,22.27,22.27,0,0,0-.15-2.45,25.34,25.34,0,0,0-.45-2.7,15.49,15.49,0,0,0-.8-2.55,7.43,7.43,0,0,0-1.3-2.1c-.33-.54-.63-.8-.9-.8s-.53.23-.8.7a19.15,19.15,0,0,0-4.8,6.15A11.93,11.93,0,0,0,168,140a6.16,6.16,0,0,0,1.8,3.8,30.06,30.06,0,0,0,2.9,4.5q1.69,2.19,3.2,4.5a5.36,5.36,0,0,1,1.2,1.8c.27.66.53,1.3.8,1.9.33.33.57.5.7.5s.4-.17.6-.5c2.2-1.34,4.08-2.4,5.65-3.2s3-1.62,4.4-2.45a26,26,0,0,0,4.05-3.1,43.27,43.27,0,0,0,4.6-5.25,2.59,2.59,0,0,0,.4-.6,2,2,0,0,1,.4-.6,7,7,0,0,1,.7-.15,3,3,0,0,1,.6-.05.57.57,0,0,1,.4.1.67.67,0,0,1,0,.7c-.13.33-.23.61-.3.85a2.38,2.38,0,0,1-.6.85,37.39,37.39,0,0,1-4.4,5.15,29.35,29.35,0,0,1-3.85,3q-1.95,1.25-4.25,2.45a62.92,62.92,0,0,0-5.6,3.4A4.66,4.66,0,0,0,179.8,159a2.51,2.51,0,0,0,0,2.15,21.23,21.23,0,0,1,.4,9.6,47.27,47.27,0,0,1-2.6,9,24.82,24.82,0,0,1-1.2,2.8,11.64,11.64,0,0,1-1.8,2.6,11.19,11.19,0,0,1-2.8,2.65,5.91,5.91,0,0,1-3.2,1,4.68,4.68,0,0,1-.7-.05l-.7-.15a4.58,4.58,0,0,1-1.95-.85,5.56,5.56,0,0,1-1.35-1.45,18.21,18.21,0,0,1-1.95-8.7,13.46,13.46,0,0,1,2.95-8,21,21,0,0,1,2-2.25c.7-.7,1.42-1.35,2.15-1.95.53-.4,1-.77,1.5-1.1a10.75,10.75,0,0,0,1.2-1c-.47-1-1.05-2.24-1.75-3.7a41.35,41.35,0,0,1-1.65-3.9q-1.5-2.21-2.95-4.45t-2.85-4.55a12.62,12.62,0,0,1-3.3-7.8,14.57,14.57,0,0,1,2-7.7,10.41,10.41,0,0,1,1.75-3.25,31.81,31.81,0,0,1,2.55-2.85,12.06,12.06,0,0,1,7.9-3,13.46,13.46,0,0,1,2,.15C176.12,122.32,176.82,122.43,177.55,122.57Zm-6.2,60.2a20.72,20.72,0,0,0,2.2-8.4,39.47,39.47,0,0,0-.6-8.8c0-.47-.1-.7-.3-.7a.53.53,0,0,0-.4.2c-1.07.86-2.08,1.73-3.05,2.6a19.09,19.09,0,0,0-2.75,3.1,11.66,11.66,0,0,0-2.3,7,25.27,25.27,0,0,0,.5,4,13.27,13.27,0,0,0,1.4,3.7c.67.86,1.23,1.3,1.7,1.3a1.8,1.8,0,0,0,1.15-.45,6.93,6.93,0,0,0,1-1.1,10.29,10.29,0,0,0,.85-1.3A12.59,12.59,0,0,0,171.35,182.77Z" transform="translate(-38.5 -74.27)"/><path class="cls-1" d="M216.45,161.17q1.7,0,3.65-2.4a35.2,35.2,0,0,0,3.65-5.6,57.32,57.32,0,0,0,2.9-6.35,36.08,36.08,0,0,0,1.5-4.55c.06-.87.1-1.72.1-2.55v-2.45c-.07-1.27-.4-1.9-1-1.9a2.9,2.9,0,0,0-1.6.8A28.42,28.42,0,0,0,218.6,143a53.9,53.9,0,0,0-5.3,8.9,60.64,60.64,0,0,0-3.65,9.75,94.66,94.66,0,0,0-2.2,9.6q-.4,2.4-.6,4.95c-.14,1.7-.34,3.41-.6,5.15a2.19,2.19,0,0,1-.85,1.4,3.57,3.57,0,0,1-1.65.3,3.52,3.52,0,0,1-1.9-.5,2.64,2.64,0,0,1-1.1-1.6,18.06,18.06,0,0,1-1.05-3.5c-.23-1.2-.52-2.4-.85-3.6q-.71-.3-1.2-3.6c-.33-2.2-.65-4.89-1-8.05s-.54-6.59-.7-10.25-.3-7.05-.4-10.15-.17-5.67-.2-7.7a15.28,15.28,0,0,1,0-3,150,150,0,0,1,1.35-15,125.05,125.05,0,0,1,3-15c.47-1.8,1-3.44,1.5-4.9a31.46,31.46,0,0,1,1.8-4.1q1-1.9,2.25-3.8a47.72,47.72,0,0,1,2.95-4,4.76,4.76,0,0,1,2.15-1.5,7.73,7.73,0,0,1,2.75-.5,6.15,6.15,0,0,1,1.15.1,4.84,4.84,0,0,1,1,.3c1.2.26,1.8,1.13,1.8,2.6a23.33,23.33,0,0,0,.1,3.85,11.18,11.18,0,0,1-.2,3.65A198.56,198.56,0,0,1,212.9,115q-2.75,10.89-6,21.8a16,16,0,0,0-1,4.25c-.13,1.43-.2,2.91-.2,4.45v22.1a.82.82,0,0,1,.2.6q0-.1.15-.15a.24.24,0,0,0,.15-.25c.33-.94.63-1.87.9-2.8s.5-1.9.7-2.9c.53-1.74,1.23-3.75,2.1-6s1.85-4.64,3-7,2.27-4.6,3.5-6.7a25.46,25.46,0,0,1,3.85-5.15,16.3,16.3,0,0,1,2.2-2.2,7.84,7.84,0,0,1,2.7-1.4,4.64,4.64,0,0,1,1.5-.5,10,10,0,0,1,1.5-.1H229a4.27,4.27,0,0,1,.85.1,6.41,6.41,0,0,1,2.45,1.4,4,4,0,0,1,1.15,2.5,8.29,8.29,0,0,1,.6,3.5,19,19,0,0,1-.6,3.6,36.78,36.78,0,0,1-4.15,9.55,27.2,27.2,0,0,1-7.15,7.65,4.27,4.27,0,0,1-1.15.7,5.62,5.62,0,0,0-1.05.5,6.77,6.77,0,0,1-.45.55c-.1.1-.05.28.15.55a29.16,29.16,0,0,1,3.35,7.9q1,4.09,2.15,8.3.49,2.4,1.2,4.95a24.8,24.8,0,0,0,1.9,4.85.47.47,0,0,1,.25.25.92.92,0,0,0,.25.35,5.32,5.32,0,0,0,.9,1.2c.13,0,.31-.12.55-.35a11.57,11.57,0,0,1,1-.85,23.26,23.26,0,0,0,5.6-7.7,69.3,69.3,0,0,0,3.75-10.15q1.55-5.46,2.7-11.1t2.45-10.65c.13-.87.23-1.75.3-2.65a14.46,14.46,0,0,1,.4-2.55,1.76,1.76,0,0,1,.75-1.15,2,2,0,0,1,1.15-.35,2.93,2.93,0,0,1,.9.1c.13,0,.23.08.3.25a1.31,1.31,0,0,1,.1.45,3.3,3.3,0,0,0-.1.85,3.49,3.49,0,0,1-.2,1q-.41,1.69-1,5.6c-.4,2.6-.92,5.51-1.55,8.75s-1.42,6.63-2.35,10.2a79.7,79.7,0,0,1-3.35,10.1,42.16,42.16,0,0,1-4.5,8.35,13.81,13.81,0,0,1-5.95,5,4.72,4.72,0,0,1-1.9.4,5.54,5.54,0,0,1-3.9-1.75,18.91,18.91,0,0,1-3.2-4.2A41.2,41.2,0,0,1,219.1,184c-.7-1.74-1.22-3.14-1.55-4.2q-1.2-3.71-2.3-7.35c-.74-2.44-1.54-4.85-2.4-7.25a8.85,8.85,0,0,0-.8-1.6,2.42,2.42,0,0,0-.25-.4.82.82,0,0,1-.15-.5,1.06,1.06,0,0,1-.05-1,.86.86,0,0,1,.85-.55,8.85,8.85,0,0,1,1-.15,7.18,7.18,0,0,1,.95,0,5.32,5.32,0,0,1,.85,0,6.21,6.21,0,0,1,.75.15A1.2,1.2,0,0,0,216.45,161.17ZM214.25,88v-.1c-.07,0-.1-.1-.1-.3a.78.78,0,0,0-.6.2.26.26,0,0,0-.1.2,2.72,2.72,0,0,1-.4,1c-.2.3-.4.61-.6,1a43.2,43.2,0,0,1-2.3,7.6,33.85,33.85,0,0,0-2.1,7.5q-1.41,6.6-2.6,14a122.61,122.61,0,0,0-1.5,14.3v.9a.44.44,0,0,1,.15-.4.45.45,0,0,0,.15-.4,2.75,2.75,0,0,0,.7-1.25c.13-.5.3-1.05.5-1.65q1.5-5.91,3.1-11.9t3-12.1q.9-4,1.45-8t1.25-7.9Z" transform="translate(-38.5 -74.27)"/><path class="cls-1" d="M284.25,140.77c.4-.8.86-1.2,1.4-1.2a1,1,0,0,1,.9.5.69.69,0,0,1,.2.5,1.09,1.09,0,0,0,.1.5c-.6,1.33-1.22,2.63-1.85,3.9s-1.32,2.46-2.05,3.6q-3,4.8-5.7,9.3a73.58,73.58,0,0,1-5.45,7.95,27,27,0,0,1-5.85,5.55,12.2,12.2,0,0,1-7,2.1h-.4a17.39,17.39,0,0,1-4.25-.9,10,10,0,0,1-3.65-2.4,20.11,20.11,0,0,1-3.2-6,29.7,29.7,0,0,1-1.3-6.7,9,9,0,0,0-.15-1.75,7.91,7.91,0,0,1-.15-1.55,56.9,56.9,0,0,1,.65-5.9,32.42,32.42,0,0,1,1.3-5.2,40.41,40.41,0,0,1,2-4.95,45.21,45.21,0,0,1,2.9-5.05,10.11,10.11,0,0,1,7.9-4h1.05a3.48,3.48,0,0,1,1.15.2,3,3,0,0,1,2.2.8,7.64,7.64,0,0,1,1.4,2,4.76,4.76,0,0,1,.9,2.5,13.84,13.84,0,0,1-.1,2.8,16.56,16.56,0,0,1-6.1,9.1,7.62,7.62,0,0,1-3.4,1.85,19.2,19.2,0,0,1-3.8.35c-.34,0-.55.1-.65.3a5.7,5.7,0,0,0-.35,1.1,27.31,27.31,0,0,0,.25,7.6,49.74,49.74,0,0,0,1.85,7.4,10.07,10.07,0,0,0,1.3,2.65,9,9,0,0,0,2.2,2.15,3,3,0,0,0,1.6.5,7,7,0,0,0,3.85-1.5,29.6,29.6,0,0,0,4.45-4,67.08,67.08,0,0,0,4.65-5.6c1.56-2.1,3-4.25,4.45-6.45s2.68-4.35,3.85-6.45S283.51,142.43,284.25,140.77Zm-25.4-7a30.56,30.56,0,0,0-2.9,5.3,43.3,43.3,0,0,0-2,5.7,8.12,8.12,0,0,1,0,.9.55.55,0,0,0,.35.6,2,2,0,0,0,1.3-.3,11.74,11.74,0,0,0,2.55-1.65,12.89,12.89,0,0,0,2.2-2.4,12.55,12.55,0,0,0,1.5-2.85,8.82,8.82,0,0,0,.55-3v-1.5a3.1,3.1,0,0,0-.5-1c-.27-.94-.54-1.4-.8-1.4s-.6.3-1.2.9A2.81,2.81,0,0,0,258.85,133.77Z" transform="translate(-38.5 -74.27)"/><path class="cls-1" d="M313.05,140.37a41.31,41.31,0,0,0-7.4,11.7,71.55,71.55,0,0,0-4.2,13.2,31.82,31.82,0,0,0-.9,4.15c-.2,1.36-.37,2.71-.5,4.05a17.67,17.67,0,0,0-.55,4c0,1.33-.09,2.66-.15,4a10.93,10.93,0,0,0-.3,1.7c-.07.6-.17,1.23-.3,1.9a1.4,1.4,0,0,1-.65,1l-1,.4a7.71,7.71,0,0,1-2-.25,2.24,2.24,0,0,1-1.4-1.45,11,11,0,0,1-1.3-2.3c-.34-.8-.67-1.64-1-2.5-.74-2.54-1.45-5-2.15-7.5s-1.32-4.9-1.85-7.3q-1.31-6.1-2.35-12.15t-1.55-12.35q-.1-1-.3-3.15c-.14-1.44-.25-3.05-.35-4.85s-.2-3.7-.3-5.7-.19-3.9-.25-5.7-.12-3.42-.15-4.85a26.13,26.13,0,0,1,.05-3.15,1.18,1.18,0,0,1,.2-.7,18.52,18.52,0,0,0,.25-2.2c0-.74.05-1.5.05-2.3.2-2,.36-4,.5-5.95s.33-4,.6-6c.2-1.2.46-2.54.8-4a45.81,45.81,0,0,1,1.25-4.45c.5-1.5,1.05-2.94,1.65-4.3a18.25,18.25,0,0,1,2-3.55,4.5,4.5,0,0,1,1.2-1.85,8.35,8.35,0,0,1,1.7-1.25,4.41,4.41,0,0,1,2.7-.8,3.08,3.08,0,0,1,1-.2,5.19,5.19,0,0,1,1.2.2c1.46,0,2,.7,1.7,2.1a15.44,15.44,0,0,1-1,4.3c-.2.93-.42,1.81-.65,2.65a18.79,18.79,0,0,0-.55,2.65c-.34,1.33-.67,2.71-1,4.15a30.76,30.76,0,0,0-.7,4.15q-.51,3.09-.85,6.2c-.24,2.06-.55,4.13-.95,6.2-.14,1.86-.3,3.75-.5,5.65s-.34,3.81-.4,5.75a31.34,31.34,0,0,0-.4,3.65c-.07,1.23-.17,2.51-.3,3.85q0,4.8-.15,9.3t-.15,9a39.55,39.55,0,0,0,.3,4.9c.2,1.6.33,3.26.4,5q.19,1.89.3,3.75c.06,1.23.16,2.51.3,3.85q.79,4.8,1.6,9.45c.53,3.1,1.13,6.21,1.8,9.35a.3.3,0,0,0,.2.1.39.39,0,0,0,0,.2.46.46,0,0,1,.05.2.55.55,0,0,1,.1-.4v-.1a29.7,29.7,0,0,1,.2-3.55c.13-1.17.26-2.39.4-3.65A95.07,95.07,0,0,1,298.8,162a83.81,83.81,0,0,1,3.45-12.45c.53-1.34,1.1-2.69,1.7-4s1.23-2.72,1.9-4.05a9.08,9.08,0,0,1,1.15-1.8c.43-.54.91-1.14,1.45-1.8a5.18,5.18,0,0,1,2.45-2.05,8.17,8.17,0,0,1,3.25-.65,9.78,9.78,0,0,1,4.8,1.1,7.24,7.24,0,0,1,3.1,3.7,30.36,30.36,0,0,1,1.7,6.8.4.4,0,0,0,.1.3v.1a.18.18,0,0,0,.2-.2c.73-.47,1.7-1,2.9-1.7s2.46-1.37,3.8-2.1L334.6,141a22.14,22.14,0,0,0,2.95-2,13.31,13.31,0,0,0,3-3,36,36,0,0,1,2.8-3.4c1,.4,1.21,1.11.65,2.15a15,15,0,0,1-2.95,3.5,47.58,47.58,0,0,1-4.95,4q-2.85,2-5.45,3.65t-4.35,2.55c-1.17.6-1.75.8-1.75.6a2.16,2.16,0,0,0-.6,1.6q0,3.2-.3,6.8a33,33,0,0,1-1.35,7,24.24,24.24,0,0,1-2.95,6.25,13,13,0,0,1-5.1,4.45,5.32,5.32,0,0,1-2.7.7,3.76,3.76,0,0,1-1-.1,4.47,4.47,0,0,1-2.65-1.35,5.2,5.2,0,0,1-1.25-2.55q-2.5-9.81,4.2-17a7.2,7.2,0,0,1,2-1.45,15.58,15.58,0,0,0,2.25-1.35l.6-.6a.69.69,0,0,0,.1-.8c-.14-1.47-.27-2.92-.4-4.35a15.08,15.08,0,0,0-1-4.15,4.71,4.71,0,0,0-.6-1.5q-.11-.6-.3-.6A.8.8,0,0,0,313.05,140.37Zm2.1,27.3a48.71,48.71,0,0,0,.9-9.7v-3.7c0-.4,0-.6-.1-.6l-.5.3a18.56,18.56,0,0,0-3.1,1.9,19.19,19.19,0,0,0-3.6,5.75,12.92,12.92,0,0,0-.7,6.65,11.63,11.63,0,0,0,1.1,4.7,2.42,2.42,0,0,0,1.8,1.2c.4,0,.93-.34,1.6-1a16.5,16.5,0,0,0,1.6-2.75A21.58,21.58,0,0,0,315.15,167.67Z" transform="translate(-38.5 -74.27)"/><path class="cls-1" d="M360.85,123.87a6.85,6.85,0,0,1,1.25,1.45,21,21,0,0,1,1,1.85,23.68,23.68,0,0,1,1.5,6.2q.39,3.49.6,7-.21,2.9-.55,5.8a35.17,35.17,0,0,1-1.15,5.6,4.46,4.46,0,0,0,.25,1.15c.1.23.38.35.85.35q6.9,0,11.25-3.8a22.56,22.56,0,0,0,6.45-10.1,1.71,1.71,0,0,1,.5-.35,1.33,1.33,0,0,1,.6-.15.3.3,0,0,0,.2.1.53.53,0,0,0,.2-.05.35.35,0,0,1,.2,0c.46,0,.56.43.3,1.3A18.65,18.65,0,0,1,382,146a19.57,19.57,0,0,1-9.95,8,20.23,20.23,0,0,1-7.05,1.2,2.63,2.63,0,0,0-1.5.3,1.93,1.93,0,0,0-.5,1.4,12.25,12.25,0,0,1-2.25,3.6,16.4,16.4,0,0,1-3.25,2.75,17.15,17.15,0,0,1-3.8,1.8,12.75,12.75,0,0,1-3.9.65,8.59,8.59,0,0,1-6.2-2.3,17,17,0,0,1-5.3-9.85A27.23,27.23,0,0,1,339,142c.53-1.2,1-2.4,1.45-3.6a7.3,7.3,0,0,1,2.35-3.2,3.65,3.65,0,0,0,1.2-2.8,4.58,4.58,0,0,1,.5-3.45,12.28,12.28,0,0,0,1.3-2.75A6.85,6.85,0,0,1,347,124a21.44,21.44,0,0,1,1.85-1.85,7,7,0,0,1,4.6-1.4,11.13,11.13,0,0,1,3.9.75A9.14,9.14,0,0,1,360.85,123.87Zm-1.9,31.2a1.23,1.23,0,0,0-.2-.55c-.14-.24-.27-.35-.4-.35a18.76,18.76,0,0,1-2.55-1.85,30.52,30.52,0,0,1-2.6-2.5c-.84-.9-1.64-1.82-2.4-2.75s-1.42-1.8-1.95-2.6c-.14,0-.4-.2-.8-.6q.09.19-.15.45a3,3,0,0,0-.45.55c-.07.6-.15,1.35-.25,2.25S347,149,347,150a27.3,27.3,0,0,0,.05,3,24.17,24.17,0,0,0,.3,2.7l.35,1.4a13.68,13.68,0,0,0,.45,1.4,7.65,7.65,0,0,0,1.6,3,2.67,2.67,0,0,0,1.9.9,4.18,4.18,0,0,0,2.4-.85,11.78,11.78,0,0,0,2.2-2.05A20.49,20.49,0,0,0,358,157,9.71,9.71,0,0,0,359,155.07Zm-6.5-14.9a16.67,16.67,0,0,0,2.6,5.15,48.64,48.64,0,0,0,4,4.75c.4.46.7.7.9.7s.4-.27.6-.8a51.83,51.83,0,0,0,1.4-7.7,33.24,33.24,0,0,0-.4-8.7,14.43,14.43,0,0,0-.6-2.95,16.25,16.25,0,0,0-1.35-3.15,8.92,8.92,0,0,0-2.05-2.5,4.24,4.24,0,0,0-2.8-1,3.22,3.22,0,0,0-2.4,1.2,9.8,9.8,0,0,0-1.05,2.55,8.45,8.45,0,0,0-.15,3.15,14.23,14.23,0,0,0,.15,4.6C351.6,137,352,138.57,352.45,140.17Z" transform="translate(-38.5 -74.27)"/><path class="cls-1" d="M411.55,134.17l1.2,5.7a77.61,77.61,0,0,1,.8,9.15q.09,4.35.3,9.15v.6a.85.85,0,0,0,.6-.2,42.87,42.87,0,0,0,4.25-3.4c1.9-1.67,3.86-3.37,5.9-5.1s3.91-3.29,5.65-4.65,2.9-2,3.5-2,.5.43.1,1.3q-3.21,3.2-6.5,6.5t-6.6,6.5a36.8,36.8,0,0,1-3.2,2.8c-1.2.93-2.24,1.76-3.1,2.5a1.37,1.37,0,0,0-.65.75,3,3,0,0,0-.15.95,29.37,29.37,0,0,0-.2,3.6,31.76,31.76,0,0,1-.2,3.6c-.14,1.26-.3,2.53-.5,3.8l-.6,3.8c-.14,1.53-.35,3.3-.65,5.3s-.67,4-1.1,6.1-.89,4.06-1.35,6-.94,3.6-1.4,5c-.54,2.13-1.3,4.68-2.3,7.65s-2.17,5.95-3.5,8.95a87.83,87.83,0,0,1-4.35,8.5,33,33,0,0,1-4.85,6.5c-1.07,1.26-2.15,2.45-3.25,3.55a14.36,14.36,0,0,1-3.95,2.75,9.71,9.71,0,0,1-3.85,1.65,30.91,30.91,0,0,1-4.15.25,8.43,8.43,0,0,1-5.9-2.2,10.68,10.68,0,0,1-3.2-5.4,20.06,20.06,0,0,1-1.1-3.6,18.24,18.24,0,0,1-.4-3.8v-6.1a36.68,36.68,0,0,1,2.75-10.45,60.48,60.48,0,0,1,5.25-9.75,78.67,78.67,0,0,1,6.8-8.9q3.69-4.2,7.4-8,6.6-6.51,13.1-13.1c.46-.4.91-.82,1.35-1.25a12,12,0,0,1,1.45-1.25,2,2,0,0,0,.6-1.5q.19-7.2.2-14.2V137a3.71,3.71,0,0,1-.6.8l-3.8,6.35q-1.91,3.15-3.8,6.15c-.67,1.06-1.45,2.21-2.35,3.45a24.91,24.91,0,0,1-3,3.4,20,20,0,0,1-3.55,2.65,9.92,9.92,0,0,1-4,1.3c-.54,0-1,0-1.5.05s-1,0-1.5,0a6.88,6.88,0,0,1-4.1-1.15,4.88,4.88,0,0,1-1.8-3.85A13.84,13.84,0,0,1,376,152a25.14,25.14,0,0,1,1.1-3.85,35.21,35.21,0,0,1,2.45-5.65,30.1,30.1,0,0,1,3.05-4.55,32.11,32.11,0,0,1,3.8-3.95q2.1-1.86,4.8-3.85a23.28,23.28,0,0,1,3.55-1.45,11.64,11.64,0,0,1,3.55-.55c.33,0,.76,0,1.3.05a8.92,8.92,0,0,1,3.05.75,1.56,1.56,0,0,1,.85.8,2,2,0,0,1,.15,2.1,2.27,2.27,0,0,1-1.65,1.3,1.88,1.88,0,0,1-.7.1,2.69,2.69,0,0,1-1.6-.5.8.8,0,0,0-.6-.4,2.47,2.47,0,0,0-1.2.55,10.28,10.28,0,0,0-1.55,1.3c-.5.5-1,1-1.4,1.5s-.75.85-.95,1.05c-.74.86-1.47,1.73-2.2,2.6a23.53,23.53,0,0,0-2,2.7,14.35,14.35,0,0,0-1.15,1.85q-.75,1.35-1.5,2.85c-.5,1-1,2-1.4,2.9a14.45,14.45,0,0,0-.85,2.1q-.51,1.29-.9,2.55a5.37,5.37,0,0,0-.2,2.55c0,.8.13,1.2.4,1.2a3.22,3.22,0,0,0,.7-.4,23.55,23.55,0,0,0,7.2-5.25,55.42,55.42,0,0,0,5.5-7q1.59-2.7,3.05-5.3t3-5.2l.65-.85.45-.65a2,2,0,0,1,1.3-1.3,6.21,6.21,0,0,1,1.6-.2,6.42,6.42,0,0,1,2.4.4A2.85,2.85,0,0,1,411.55,134.17Zm-6.6,41.1a6.81,6.81,0,0,0,.2-1.6v-2.2c-.14.13-.24.2-.3.2s-.1.06-.1.2c-.74.66-1.47,1.33-2.2,2a25.15,25.15,0,0,0-2,2q-4.41,4.2-8.35,8.45t-7.75,9a87,87,0,0,0-5.45,6.85,55.54,55.54,0,0,0-4.5,7.4,45.55,45.55,0,0,0-3.15,8,33.37,33.37,0,0,0-1.3,8.65c.2,1.13.36,2.28.5,3.45s.3,2.31.5,3.45a23.5,23.5,0,0,0,1.05,3.5,9.53,9.53,0,0,0,1.95,3.1,6.18,6.18,0,0,0,4.2,2,4.93,4.93,0,0,0,1.2-.15l1.4-.35c.53-.34,1-.65,1.55-.95a11.07,11.07,0,0,0,1.35-.95,37.78,37.78,0,0,0,9.4-12.45,97.1,97.1,0,0,0,6.25-16.55,146.22,146.22,0,0,0,3.75-17.55Q404.44,182,405,175.27Z" transform="translate(-38.5 -74.27)"/><path class="cls-1" d="M468.35,140.77c.4-.8.86-1.2,1.4-1.2a1,1,0,0,1,.9.5.69.69,0,0,1,.2.5,1.09,1.09,0,0,0,.1.5c-.6,1.33-1.22,2.63-1.85,3.9s-1.32,2.46-2.05,3.6q-3,4.8-5.7,9.3a73.58,73.58,0,0,1-5.45,7.95,27,27,0,0,1-5.85,5.55,12.2,12.2,0,0,1-7,2.1h-.4a17.39,17.39,0,0,1-4.25-.9,10,10,0,0,1-3.65-2.4,20.11,20.11,0,0,1-3.2-6,29.7,29.7,0,0,1-1.3-6.7,9,9,0,0,0-.15-1.75,7.91,7.91,0,0,1-.15-1.55,56.9,56.9,0,0,1,.65-5.9,32.42,32.42,0,0,1,1.3-5.2,40.41,40.41,0,0,1,2.05-4.95,45.21,45.21,0,0,1,2.9-5.05,10.11,10.11,0,0,1,7.9-4h1.05a3.48,3.48,0,0,1,1.15.2,3,3,0,0,1,2.2.8,7.64,7.64,0,0,1,1.4,2,4.76,4.76,0,0,1,.9,2.5,13.84,13.84,0,0,1-.1,2.8,16.56,16.56,0,0,1-6.1,9.1,7.62,7.62,0,0,1-3.4,1.85,19.2,19.2,0,0,1-3.8.35c-.34,0-.55.1-.65.3a5.7,5.7,0,0,0-.35,1.1,27.31,27.31,0,0,0,.25,7.6,49.74,49.74,0,0,0,1.85,7.4,10.07,10.07,0,0,0,1.3,2.65,9,9,0,0,0,2.2,2.15,3,3,0,0,0,1.6.5,7,7,0,0,0,3.85-1.5,29.6,29.6,0,0,0,4.45-4,67.08,67.08,0,0,0,4.65-5.6c1.56-2.1,3.05-4.25,4.45-6.45s2.68-4.35,3.85-6.45S467.61,142.43,468.35,140.77Zm-25.4-7a30.56,30.56,0,0,0-2.9,5.3,43.3,43.3,0,0,0-2,5.7,8.12,8.12,0,0,1-.05.9.55.55,0,0,0,.35.6,2,2,0,0,0,1.3-.3,11.74,11.74,0,0,0,2.55-1.65,12.89,12.89,0,0,0,2.2-2.4,12.55,12.55,0,0,0,1.5-2.85,8.82,8.82,0,0,0,.55-3v-1.5a3.1,3.1,0,0,0-.5-1c-.27-.94-.54-1.4-.8-1.4s-.6.3-1.2.9A2.81,2.81,0,0,0,443,133.77Z" transform="translate(-38.5 -74.27)"/><path class="cls-1" d="M465.85,166.77a54,54,0,0,1-.5-5.75c-.07-1.9-.1-3.89-.1-6,0-1.74,0-3.57.1-5.5a53.81,53.81,0,0,1,.5-5.8q.5-2.81,1-5.3a28,28,0,0,1,1.65-5.1,22.66,22.66,0,0,1,1.15-2.05,2.57,2.57,0,0,1,1.85-1.25,6,6,0,0,1,1.9-.3,8.39,8.39,0,0,1,2.2.3,1.53,1.53,0,0,1,1.1,1.7V134a11,11,0,0,1-.2,2.1q-.41,2.9-.75,5.75c-.24,1.9-.52,3.81-.85,5.75a36.83,36.83,0,0,0-.5,4.65c-.07,1.5-.14,3-.2,4.55a23.37,23.37,0,0,0-.25,2.65c0,.83-.09,1.65-.15,2.45v.5l.4-.5c.46-1.34.91-2.7,1.35-4.1s.88-2.8,1.35-4.2a64.07,64.07,0,0,1,2.35-6.3q1.44-3.41,3.2-6.7a68.29,68.29,0,0,1,3.8-6.35,33.79,33.79,0,0,1,4.25-5.25,4.08,4.08,0,0,1,2.5-.8,4.94,4.94,0,0,1,2.55.75,4.43,4.43,0,0,1,1.85,2.45c.2.73.35,1.35.45,1.85a9,9,0,0,1,.15,1.75c.06,1.6.05,3.2-.05,4.8s-.22,3.16-.35,4.7c-.34,2.33-.65,4.66-.95,7s-.62,4.7-.95,7.1c-.2,1.13-.37,2.31-.5,3.55s-.24,2.41-.3,3.55q-.3,2.6-.45,5.1a34.79,34.79,0,0,0,.05,5v1.5a7.62,7.62,0,0,0,.1,1.3c0,.4.13.53.4.4a10.79,10.79,0,0,0,.9-1,80.75,80.75,0,0,0,4.5-7.65c1.2-2.37,2.26-4.74,3.2-7.1s1.81-4.8,2.65-7.3,1.75-5.25,2.75-8.25a13.78,13.78,0,0,1,.45-2.1l.45-1.5c.13-.47.28-1,.45-1.55s.35-1.29.55-2.15a1.55,1.55,0,0,1,1.6-1q.8,0,.6.9t-.15,1.65a6.45,6.45,0,0,1-.45,1.85,8.13,8.13,0,0,1-.2,1,3.53,3.53,0,0,0-.15.55,6.06,6.06,0,0,1-.2.65,10.22,10.22,0,0,0-.35,1.2c-.94,3.26-1.8,6.28-2.6,9.05s-1.69,5.43-2.65,8a79.34,79.34,0,0,1-3.4,7.7,78.21,78.21,0,0,1-4.85,8.15,3.32,3.32,0,0,1-.75,1,8.47,8.47,0,0,0-.95,1c-.27.13-.54.25-.8.35a2.31,2.31,0,0,1-.8.15h-1.2a3.44,3.44,0,0,1-2.25-.7,5,5,0,0,1-1.35-1.75,7.2,7.2,0,0,1-.65-2.3,19.91,19.91,0,0,1-.15-2.35v-6.35c0-2,.06-4.15.2-6.35q.3-3.9.9-7.7t1.3-7.5q.39-2.4.75-4.65c.23-1.5.41-3.09.55-4.75a16.52,16.52,0,0,0,.35-2.65c0-.84.08-1.72.15-2.65a6.42,6.42,0,0,0-.1-1.05,3.13,3.13,0,0,0-.4-1c-.14-.34-.24-.5-.3-.5s-.24.13-.5.4a2.57,2.57,0,0,0-.8.65c-.27.3-.54.58-.8.85a40.18,40.18,0,0,0-4.75,7.15,81.43,81.43,0,0,0-3.9,8.45q-1.75,4.39-3.1,8.85t-2.25,8.45c-.27,1-.52,2.08-.75,3.25s-.52,2.31-.85,3.45a16.45,16.45,0,0,1-.55,1.7,2,2,0,0,1-.7.9,3.33,3.33,0,0,1-1.05.45,6.88,6.88,0,0,1-1.6.15,3.18,3.18,0,0,1-2.1-.75,6.35,6.35,0,0,1-1.5-1.85,24.22,24.22,0,0,1-1-2.75A18,18,0,0,1,465.85,166.77Z" transform="translate(-38.5 -74.27)"/><path class="cls-1" d="M82.55,139.32c0,.71.94.71.92.32-.06-.89-.84-6.76-.63-9,.23-2.4-.31.06-.38-.07-1.37-2.57-4.89-.63-5.27-.21-1,1.11-.21,10.11-.06,15.78s3,12.08,5.26,17.79c3,7.82,8.41,21.62,16.49,22.3a12.89,12.89,0,0,0,9.1-3c.35-.33,1.48-1.4,1.2-2.1s-1.64-.6-4.3-.8c-1.5-.11-3-.33-4.5-.5-4.53-.5-10.66-11.56-13.8-25.2-.71-3.1-1.45-4.63-1.94-7.21-.25-1.28-.89-6.56-1.23-8.11" transform="translate(-38.5 -74.27)"/><path class="cls-1" d="M82.46,139.86" transform="translate(-38.5 -74.27)"/></svg>